<svg width="120" height="120" viewBox="0 0 120 120" xmlns="http://www.w3.org/2000/svg">
  <g stroke="#4a555c" stroke-width="2.5" fill="none" stroke-linecap="round" stroke-linejoin="round">
    <path d="M60 40 C 48 40, 44 52, 44 64 C 44 78, 50 86, 60 86 C 70 86, 76 78, 76 64 C 76 52, 72 40, 60 40 Z"/>
    <path d="M54 50 C 52 58, 52 70, 55 82 C 58 84, 62 84, 65 82 C 68 70, 68 58, 66 50 C 63 47, 57 47, 54 50 Z"/>
    <circle cx="54" cy="50" r="1.8" fill="#4a555c" stroke="none"/>
    <circle cx="66" cy="50" r="1.8" fill="#4a555c" stroke="none"/>
    <path d="M57 56 L 63 56 L 60 60 Z" stroke="#e8b84a"/>
    <path d="M46 34 L 74 34 L 72 42 L 48 42 Z" stroke="#e08e8e"/>
    <line x1="60" y1="28" x2="60" y2="34" stroke="#e08e8e"/>
  </g>
</svg>