<svg width="120" height="120" viewBox="0 0 120 120" xmlns="http://www.w3.org/2000/svg">
  <g stroke="#4a555c" stroke-width="2.5" fill="none" stroke-linecap="round" stroke-linejoin="round">
    <path d="M60 34 C 45 34, 40 48, 42 62 C 44 76, 50 86, 60 86 C 70 86, 76 76, 78 62 C 80 48, 75 34, 60 34 Z"/>
    <ellipse cx="52" cy="58" rx="4" ry="6"/>
    <ellipse cx="68" cy="58" rx="4" ry="6"/>
    <ellipse cx="60" cy="74" rx="5" ry="8"/>
    <path d="M38 44 Q 34 54, 36 64 M82 44 Q 86 54, 84 64" stroke="#e08e8e"/>
    <path d="M30 32 Q 40 26, 50 30 M70 30 Q 80 26, 90 32" stroke="#e8b84a"/>
  </g>
</svg>