<svg width="240" height="240" viewBox="0 0 240 240" xmlns="http://www.w3.org/2000/svg">
  <rect width="240" height="240" fill="#f1f8f3"/>
  <g stroke-width="1.8" fill="none" stroke-linecap="round" stroke-linejoin="round">
    <g stroke="#a8cfb5">
      <path d="M20 50 L 34 30 L 48 50 Z"/>
      <path d="M30 36 L 34 30 L 38 36"/>
      <path d="M24 46 Q 27 44, 30 46 Q 33 48, 36 46"/>
    </g>
    <g stroke="#a8cfb5">
      <circle cx="120" cy="36" r="9"/>
      <circle cx="120" cy="36" r="4.5"/>
      <path d="M120 20 L 120 14 M120 52 L 120 58 M104 36 L 98 36 M136 36 L 142 36"/>
      <path d="M109 25 L 105 21 M131 25 L 135 21 M109 47 L 105 51 M131 47 L 135 51"/>
    </g>
    <g stroke="#a8cfb5">
      <rect x="190" y="40" width="22" height="16"/>
      <path d="M186 40 L 201 28 L 216 40"/>
      <rect x="197" y="48" width="7" height="8"/>
      <circle cx="201" cy="35" r="1.6"/>
      <path d="M193 44 Q 194 42, 195 44 Q 194 46, 193 44 M207 44 Q 208 42, 209 44 Q 208 46, 207 44"/>
    </g>
    <g stroke="#a8cfb5" transform="translate(70,90)">
      <path d="M-7 -6 L -10 -14 L -3 -9"/>
      <path d="M7 -6 L 10 -14 L 3 -9"/>
      <circle cx="0" cy="0" r="9"/>
      <line x1="-9" y1="1" x2="-16" y2="0"/>
      <line x1="-9" y1="4" x2="-16" y2="5"/>
      <line x1="9" y1="1" x2="16" y2="0"/>
      <line x1="9" y1="4" x2="16" y2="5"/>
      <line x1="-3.5" y1="-2" x2="-3.5" y2="-1.5"/>
      <line x1="3.5" y1="-2" x2="3.5" y2="-1.5"/>
      <path d="M-1.5 2.5 L 1.5 2.5 L 0 4.5 Z"/>
      <path d="M0 4.5 Q -2 6.5, -4 5.5 M0 4.5 Q 2 6.5, 4 5.5"/>
      <path d="M13 -14 C 13 -16, 16 -16, 16 -14 C 16 -16, 19 -16, 19 -14 C 19 -11.5, 16 -10, 16 -10 C 16 -10, 13 -11.5, 13 -14 Z"/>
    </g>
    <g stroke="#a8cfb5">
      <path d="M30 130 L 52 130 L 47 138 L 35 138 Z"/>
      <line x1="41" y1="130" x2="41" y2="118"/>
      <path d="M41 118 L 51 125 L 41 128"/>
      <path d="M33 134 Q 36 132, 39 134 M43 134 Q 46 132, 49 134"/>
    </g>
    <g stroke="#a8cfb5">
      <path d="M105 140 L 121 118 L 137 140 Z"/>
      <path d="M116 125 L 121 118 L 126 125"/>
      <path d="M111 134 Q 114 132, 117 134 Q 120 136, 123 134"/>
    </g>
    <g stroke="#a8cfb5" transform="translate(198,128)">
      <line x1="0" y1="-10" x2="0" y2="10"/>
      <line x1="-9" y1="-5" x2="9" y2="5"/>
      <line x1="-9" y1="5" x2="9" y2="-5"/>
      <path d="M0 -10 L -2 -7 M0 -10 L 2 -7 M0 10 L -2 7 M0 10 L 2 7"/>
      <circle cx="0" cy="0" r="2"/>
    </g>
    <g stroke="#a8cfb5" transform="translate(150,196)">
      <path d="M0 -12 L 7 -2 L 3 -2 L 9 8 L -9 8 L -3 -2 L -7 -2 Z"/>
      <line x1="0" y1="8" x2="0" y2="12"/>
      <circle cx="0" cy="-5" r="1.2"/>
      <circle cx="-3" cy="3" r="1.2"/>
      <circle cx="3" cy="3" r="1.2"/>
    </g>
    <g stroke="#a8cfb5" transform="translate(42,208)">
      <path d="M0 -11 L 3 -3 L 11 0 L 3 3 L 0 11 L -3 3 L -11 0 L -3 -3 Z"/>
      <circle cx="0" cy="0" r="2.5"/>
    </g>
    <g stroke="#a8cfb5">
      <path d="M100 210 Q 108 204, 116 210 Q 124 216, 132 210"/>
      <path d="M104 215 Q 110 211, 116 215 Q 122 219, 128 215"/>
    </g>
    <g stroke="#a8cfb5">
      <rect x="184" y="204" width="20" height="14"/>
      <path d="M180 204 L 194 194 L 208 204"/>
      <path d="M189 209 Q 190 207, 191 209 Q 190 211, 189 209 M197 209 Q 198 207, 199 209 Q 198 211, 197 209"/>
    </g>
  </g>
</svg>